#!OML:ASF X:\für Bonn\!DataBase\2005_08_12_Daniel\c3d\Daniel.ASF
:FULLY-SPECIFIED
:DEGREES
170
root 1.54415 17.3922 18.3344 212.399 -267.641 576.199
lowerback 5.97004 -6.30268 0.537315
upperback 0.754848 -8.44691 -4.31735
thorax -3.2777 -4.22343 -3.98625
lowerneck 9.82333 -11.5916 -7.41245
upperneck 10.5624 -16.0539 3.64054
head 2.76732 -8.14824 2.40932
rclavicle 5.04292e-014 -1.03368e-014
rhumerus -4.73597 -31.7535 -17.1746
rradius 72.462
rwrist 0.58461
rhand 8.97294 10.5368
rfingers 7.12502
rthumb 34.1516 -16.2132
lclavicle 5.04292e-014 -1.03368e-014
lhumerus -44.4725 40.3439 59.1251
lradius 26.8453
lwrist -27.2727
lhand -10.096 -5.11645
lfingers 7.12502
lthumb 15.8912 24.2515
rfemur 4.87541 32.2407 27.9304
rtibia 26.2414
rfoot -52.8451 -37.8782
rtoes -1.35198
lfemur -8.69709 9.27278 -9.91617
ltibia 39.7578
lfoot -19.9089 12.5678
ltoes -14.6082
171
root 1.54874 17.3889 18.3143 221.772 -268.1 585.564
lowerback 6.00054 -6.32706 0.439194
upperback 0.760674 -8.48361 -4.2506
thorax -3.26687 -4.23926 -3.85757
lowerneck 9.74102 -11.3639 -6.99555
upperneck 10.531 -15.687 3.33693
head 2.6749 -7.95063 2.25017
rclavicle -9.02731e-014 -4.77083e-015
rhumerus -6.0038 -32.5783 -16.9639
rradius 74.4598
rwrist 0.0590829
rhand 8.31206 10.4677
rfingers 7.12502
rthumb 33.5237 -16.4205
lclavicle -9.02731e-014 -4.77083e-015
lhumerus -44.2237 40.1631 59.4947
lradius 27.0564
lwrist -26.9794
lhand -10.1618 -5.10465
lfingers 7.12502
lthumb 15.8278 24.2684
rfemur 4.98445 31.9836 27.9392
rtibia 26.1897
rfoot -53.2456 -37.9283
rtoes -1.25282
lfemur -9.09186 9.9404 -9.99923
ltibia 40.0981
lfoot -19.9944 12.4748
ltoes -14.6334
172
root 1.5539 17.3852 18.2922 237.021 -268.462 600.819
lowerback 6.04452 -6.35054 0.344412
upperback 0.761477 -8.51982 -4.20568
thorax -3.27243 -4.25507 -3.75144
lowerneck 9.59646 -11.1071 -6.48163
upperneck 10.5652 -15.2659 2.94256
head 2.59831 -7.72297 2.04124
rclavicle -9.6336e-014 -3.26007e-014
rhumerus -7.33083 -33.3174 -16.7028
rradius 76.4599
rwrist -0.534898
rhand 7.67982 10.4736
rfingers 7.12502
rthumb 32.9225 -16.5429
lclavicle -9.6336e-014 -3.26007e-014
lhumerus -44.0462 40.0242 59.796
lradius 27.2918
lwrist -26.7381
lhand -10.1987 -5.1941
lfingers 7.12502
lthumb 15.7923 24.1817
rfemur 5.10062 31.6846 27.9093
rtibia 26.1372
rfoot -53.5986 -37.9806
rtoes -1.14396
lfemur -9.47707 10.6245 -10.1265
ltibia 40.4448
lfoot -20.087 12.4061
ltoes -14.6456
173
root 1.55951 17.3808 18.2682 259.268 -268.685 623.066
lowerback 6.07527 -6.37637 0.286121
upperback 0.769356 -8.55644 -4.15238
thorax -3.26716 -4.27167 -3.65842
lowerneck 9.39473 -10.8095 -5.89925
upperneck 10.6091 -14.783 2.52248
head 2.52789 -7.46229 1.81065
rclavicle -8.71547e-014 -3.97569e-015
rhumerus -8.64603 -34.0474 -16.4358
rradius 78.4583
rwrist -1.09938
rhand 7.13753 10.5136
rfingers 7.12502
rthumb 32.4066 -16.61
lclavicle -8.71547e-014 -3.97569e-015
lhumerus -43.8599 39.9357 60.0948
lradius 27.4845
lwrist -26.5603
lhand -10.2598 -5.36642
lfingers 7.12502
lthumb 15.7335 24.014
rfemur 5.22037 31.4096 27.9051
rtibia 26.082
rfoot -53.9826 -38.0276
rtoes -1.05862
lfemur -9.8761 11.3171 -10.2458
ltibia 40.8074
lfoot -20.2079 12.3465
ltoes -14.5316
174
root 1.56531 17.3775 18.2418 285.352 -268.645 649.151
lowerback 6.11754 -6.40702 0.239571
upperback 0.767604 -8.59977 -4.11204
thorax -3.28242 -4.292 -3.58241
lowerneck 9.15488 -10.4751 -5.22935
upperneck 10.6902 -14.2395 2.01393
head 2.46454 -7.16938 1.5362
rclavicle -2.13694e-015 -2.06736e-014
rhumerus -9.98782 -34.6987 -16.1461
rradius 80.4652
rwrist -1.73963
rhand 6.65185 10.6423
rfingers 7.12502
rthumb 31.9442 -16.5748
lclavicle -2.13694e-015 -2.06736e-014
lhumerus -43.6962 39.8462 60.3745
lradius 27.66
lwrist -26.3862
lhand -10.3276 -5.61477
lfingers 7.12502
lthumb 15.6682 23.7708
rfemur 5.31865 31.0298 27.8367
rtibia 26.0213
rfoot -54.278 -38.0353
rtoes -1.02894
lfemur -10.2741 11.9805 -10.4069
ltibia 41.1682
lfoot -20.3649 12.3514
ltoes -14.3578
175
root 1.57196 17.3733 18.2137 306.162 -268.379 669.962
lowerback 6.14267 -6.43634 0.214506
upperback 0.770084 -8.63956 -4.06798
thorax -3.28594 -4.31095 -3.51683
lowerneck 8.79603 -10.0868 -4.68813
upperneck 10.865 -13.6371 1.56584
head 2.47391 -6.85135 1.29249
rclavicle 2.92835e-014 1.59028e-014
rhumerus -11.3228 -35.2875 -15.8424
rradius 82.4513
rwrist -2.45774
rhand 6.26627 10.8539
rfingers 7.12502
rthumb 31.577 -16.436
lclavicle 2.92835e-014 1.59028e-014
lhumerus -43.5149 39.6835 60.702
lradius 27.8107
lwrist -26.1026
lhand -10.4462 -5.87001
lfingers 7.12502
lthumb 15.5539 23.5245
rfemur 5.42686 30.6687 27.7855
rtibia 25.9654
rfoot -54.5722 -38.0371
rtoes -0.98031
lfemur -10.6651 12.6263 -10.5698
ltibia 41.5368
lfoot -20.5535 12.3619
ltoes -13.9868
176
root 1.57839 17.3701 18.1835 319.471 -267.964 683.271
lowerback 6.18528 -6.46272 0.189435
upperback 0.75625 -8.67661 -4.02777
thorax -3.31648 -4.32874 -3.45236
lowerneck 8.35437 -9.63098 -4.38116
upperneck 11.1281 -12.9686 1.24347
head 2.56007 -6.50797 1.11924
rclavicle 3.40916e-014 2.14687e-014
rhumerus -12.625 -35.7515 -15.5126
rradius 84.3915
rwrist -3.3064
rhand 5.88273 11.0822
rfingers 7.12502
rthumb 31.2116 -16.2787
lclavicle 3.40916e-014 2.14687e-014
lhumerus -43.36 39.5159 60.9998
lradius 27.9375
lwrist -25.8401
lhand -10.5498 -6.13522
lfingers 7.12502
lthumb 15.4542 23.267
rfemur 5.49722 30.1602 27.6529
rtibia 25.909
rfoot -54.7053 -37.9822
rtoes -0.96837
lfemur -11.0536 13.2848 -10.768
ltibia 41.9016
lfoot -20.7479 12.4037
ltoes -13.8233
177
root 1.58462 17.3653 18.1515 328.066 -267.474 691.868
lowerback 6.21524 -6.48589 0.174334
upperback 0.754926 -8.70804 -3.99233
thorax -3.32876 -4.34376 -3.40105
lowerneck 7.83692 -9.14156 -4.1413
upperneck 11.4559 -12.2607 0.965638
head 2.69381 -6.14732 0.966839
rclavicle -9.65348e-015 -3.57812e-014
rhumerus -13.9118 -36.1407 -15.193
rradius 86.2919
rwrist -4.3034
rhand 5.48033 11.3831
rfingers 7.12502
rthumb 30.828 -16.051
lclavicle -9.65348e-015 -3.57812e-014
lhumerus -43.2162 39.3733 61.2815
lradius 28.0573
lwrist -25.5568
lhand -10.6302 -6.36243
lfingers 7.12502
lthumb 15.3767 23.0458
rfemur 5.58087 29.7198 27.5394
rtibia 25.8592
rfoot -54.9013 -37.9529
rtoes -0.990648
lfemur -11.4427 13.9432 -10.9819
ltibia 42.27
lfoot -20.9575 12.4732
ltoes -13.6116
178
root 1.5907 17.3614 18.1172 333.7 -266.948 697.495
lowerback 6.23481 -6.5075 0.163754
upperback 0.747925 -8.73713 -3.95161
thorax -3.34078 -4.35781 -3.34785
lowerneck 7.30811 -8.61941 -3.89141
upperneck 11.7896 -11.5056 0.659645
head 2.83296 -5.7641 0.806119
rclavicle -9.28076e-015 -1.03368e-014
rhumerus -15.1626 -36.3847 -14.8559
rradius 88.1324
rwrist -5.43555
rhand 4.98333 11.7427
rfingers 7.12502
rthumb 30.3541 -15.7799
lclavicle -9.28076e-015 -1.03368e-014
lhumerus -43.1352 39.366 61.4638
lradius 28.1349
lwrist -25.458
lhand -10.6685 -6.56294
lfingers 7.12502
lthumb 15.3398 22.8481
rfemur 5.63837 29.2133 27.381
rtibia 25.817
rfoot -55.0484 -37.8744
rtoes -1.08367
lfemur -11.8284 14.5689 -11.223
ltibia 42.6283
lfoot -21.1783 12.5523
ltoes -13.358
179
root 1.59661 17.3561 18.0813 337.803 -266.421 701.602
lowerback 6.25455 -6.51779 0.181247
upperback 0.744475 -8.74944 -3.92089
thorax -3.35386 -4.36399 -3.32198
lowerneck 6.81856 -8.07198 -3.66113
upperneck 12.0919 -10.7232 0.412711
head 2.96563 -5.36786 0.672284
rclavicle 3.33958e-014 -1.59028e-014
rhumerus -16.4206 -36.5265 -14.5343
rradius 89.9456
rwrist -6.81617
rhand 4.44311 12.1142
rfingers 7.12502
rthumb 29.8387 -15.5022
lclavicle 3.33958e-014 -1.59028e-014
lhumerus -43.0451 39.3019 61.6605
lradius 28.1963
lwrist -25.3202
lhand -10.7163 -6.68729
lfingers 7.12502
lthumb 15.2938 22.7272
rfemur 5.6908 28.6578 27.2172
rtibia 25.7858
rfoot -55.1304 -37.7455
rtoes -1.03586
lfemur -12.1932 15.1895 -11.4501
ltibia 42.9745
lfoot -21.4234 12.6293
ltoes -13.064
180
root 1.6025 17.3522 18.043 340.457 -265.883 704.248
lowerback 6.26595 -6.52933 0.168589
upperback 0.731406 -8.76555 -3.88908
thorax -3.36783 -4.37167 -3.27871
lowerneck 6.32035 -7.49021 -3.45905
upperneck 12.421 -9.89423 0.162799
head 3.11553 -4.95034 0.543889
rclavicle -2.3469e-014 2.38542e-014
rhumerus -17.625 -36.5346 -14.2782
rradius 91.7406
rwrist -8.33287
rhand 3.78246 12.5067
rfingers 7.12502
rthumb 29.208 -15.2211
lclavicle -2.3469e-014 2.38542e-014
lhumerus -42.9007 39.0996 61.9454
lradius 28.2419
lwrist -24.9914
lhand -10.7398 -6.60444
lfingers 7.12502
lthumb 15.2712 22.8118
rfemur 5.69849 27.9991 26.9644
rtibia 25.7593
rfoot -55.0278 -37.6365
rtoes -1.28202
lfemur -12.548 15.7754 -11.7153
ltibia 43.2993
lfoot -21.6938 12.694
ltoes -12.5854
181
root 1.60745 17.3475 18.002 342.581 -265.359 706.382
lowerback 6.29854 -6.53552 0.18567
upperback 0.719348 -8.77309 -3.86005
thorax -3.39689 -4.37556 -3.25274
lowerneck 5.8612 -6.8942 -3.19612
upperneck 12.7241 -9.04119 -0.121726
head 3.24981 -4.51993 0.399474
rclavicle 1.21383e-014 -1.59028e-015
rhumerus -18.7499 -36.4204 -14.0881
rradius 93.4837
rwrist -10.0247
rhand 2.98141 12.9033
rfingers 7.12502
rthumb 28.4428 -14.9549
lclavicle 1.21383e-014 -1.59028e-015
lhumerus -42.7829 38.8698 62.2253
lradius 28.2719
lwrist -24.6891
lhand -10.7398 -6.48401
lfingers 7.12502
lthumb 15.2712 22.9322
rfemur 5.72948 27.353 26.7245
rtibia 25.7406
rfoot -54.9616 -37.4725
rtoes -1.40648
lfemur -12.8724 16.306 -11.9779
ltibia 43.6029
lfoot -22.0002 12.8009
ltoes -11.9255
182
root 1.61162 17.3435 17.9591 344.105 -264.838 707.902
lowerback 6.32257 -6.53033 0.183957
upperback 0.701796 -8.76666 -3.83139
thorax -3.42321 -4.37223 -3.21918
lowerneck 5.53221 -6.27257 -2.64423
upperneck 12.8971 -8.13279 -0.598279
head 3.29676 -4.05521 0.156564
rclavicle -1.1865e-014 -7.95139e-016
rhumerus -19.8185 -36.2295 -13.9503
rradius 95.1726
rwrist -11.7997
rhand 2.14091 13.311
rfingers 7.12502
rthumb 27.6393 -14.6787
lclavicle -1.1865e-014 -7.95139e-016
lhumerus -42.6669 38.6464 62.4983
lradius 28.2837
lwrist -24.4139
lhand -10.7438 -6.32322
lfingers 7.12502
lthumb 15.2672 23.0933
rfemur 5.71046 26.5936 26.403
rtibia 25.7321
rfoot -54.7538 -37.2308
rtoes -1.5359
lfemur -13.1971 16.8275 -12.274
ltibia 43.8904
lfoot -22.3037 12.8985
ltoes -11.3428
183
root 1.61604 17.3399 17.9143 345.313 -264.34 709.119
lowerback 6.35265 -6.51557 0.180124
upperback 0.696137 -8.74703 -3.80092
thorax -3.43911 -4.36209 -3.18416
lowerneck 5.35421 -5.60017 -1.74408
upperneck 12.9221 -7.13016 -1.33568
head 3.25019 -3.53592 -0.21768
rclavicle -3.46755e-014 6.36111e-015
rhumerus -20.8211 -35.9442 -13.9084
rradius 96.839
rwrist -13.6609
rhand 1.16653 13.6777
rfingers 7.12502
rthumb 26.7072 -14.4577
lclavicle -3.46755e-014 6.36111e-015
lhumerus -42.5439 38.4228 62.7827
lradius 28.2891
lwrist -24.1433
lhand -10.7106 -6.08591
lfingers 7.12502
lthumb 15.2993 23.3282
rfemur 5.70839 25.837 26.0795
rtibia 25.7231
rfoot -54.5046 -37.0189
rtoes -1.76825
lfemur -13.4899 17.3309 -12.5714
ltibia 44.1619
lfoot -22.6198 13.0258
ltoes -10.7224
184
root 1.61998 17.3354 17.8673 346.428 -263.848 710.238
lowerback 6.3909 -6.49661 0.195058
upperback 0.673096 -8.72165 -3.77134
thorax -3.48023 -4.34966 -3.15863
lowerneck 5.34361 -4.8857 -0.691963
upperneck 12.8442 -6.06452 -2.15981
head 3.15282 -2.98034 -0.639906
rclavicle -2.24875e-014 -9.54166e-015
rhumerus -21.7864 -35.544 -13.9304
rradius 98.4986
rwrist -15.6353
rhand 0.224245 13.9971
rfingers 7.12502
rthumb 25.8051 -14.2726
lclavicle -2.24875e-014 -9.54166e-015
lhumerus -42.4711 38.2157 63.0171
lradius 28.277
lwrist -23.9039
lhand -10.6519 -5.84186
lfingers 7.12502
lthumb 15.3558 23.5679
rfemur 5.69745 25.0735 25.7567
rtibia 25.7156
rfoot -54.2129 -36.8103
rtoes -2.05877
lfemur -13.7804 17.8033 -12.8674
ltibia 44.421
lfoot -22.9503 13.1374
ltoes -10.0811
